<svg width="32" height="70" viewBox="0 0 32 70" fill="none" xmlns="http://www.w3.org/2000/svg">
<path d="M10.5078 37.4021L14.208 32.2998L6.11466 21.1575C5.48707 20.2921 4.40186 20.5265 4.00962 21.6443C3.0813 24.3307 3.42125 27.6301 5.02945 29.8658L10.5078 37.4021ZM19.3726 34.1388C21.373 35.4189 24.1841 34.5174 26.263 31.6507C28.7603 28.2071 29.2441 23.267 27.3221 20.6166C25.4131 17.9843 21.8306 18.6334 19.3203 22.077C17.2414 24.9437 16.5876 28.8201 17.5159 31.5786L5.67012 47.9133C5.42565 48.2504 5.28831 48.7076 5.28831 49.1844C5.28831 49.6611 5.42565 50.1184 5.67012 50.4555C5.91459 50.7926 6.24616 50.982 6.5919 50.982C6.93763 50.982 7.2692 50.7926 7.51367 50.4555L15.607 39.3313L23.6873 50.4735C23.8083 50.6404 23.952 50.7728 24.1102 50.8632C24.2683 50.9535 24.4378 51 24.609 51C24.7802 51 24.9497 50.9535 25.1079 50.8632C25.266 50.7728 25.4098 50.6404 25.5308 50.4735C25.6519 50.3066 25.7479 50.1084 25.8134 49.8903C25.8789 49.6722 25.9126 49.4385 25.9126 49.2024C25.9126 48.9664 25.8789 48.7326 25.8134 48.5145C25.7479 48.2964 25.6519 48.0983 25.5308 47.9313L17.4506 36.7891L19.3726 34.1388Z" fill="#02E4C0"/>
</svg>
